<svg width="32" height="32" viewBox="0 0 32 32" fill="none" xmlns="http://www.w3.org/2000/svg">
<g clip-path="url(#clip0_19_137)">
<path d="M14.5639 6.69603L14.6702 15.245L18.1524 14.0657L19.5041 8.36969L24 2.9184L14.5639 6.69603Z" fill="#4A8BD9" stroke="#4A8BD9" stroke-linecap="round"/>
<path d="M25.1153 14.1596L17.0505 16.9975L16.9613 13.3221L21.846 10.0954L25.4203 4L25.1153 14.1596Z" fill="#D94B3D" stroke="#D94B3D" stroke-linecap="round"/>
<path d="M17 14L6 29" stroke="#C5C5C5" stroke-width="5" stroke-linecap="round"/>
<path d="M14.3779 6.23145L14.2845 5.99957L14.285 5.99935L14.3779 6.23145ZM14.0605 6.35938L13.8106 6.36222L13.8086 6.19138L13.9671 6.1275L14.0605 6.35938ZM14.0645 6.70215L13.8145 6.70524L13.8145 6.705L14.0645 6.70215ZM14.1504 13.6582L14.4004 13.6551L14.4014 13.7387L14.352 13.806L14.1504 13.6582ZM3.98438 27.5215L4.18598 27.6693L4.18598 27.6693L3.98438 27.5215ZM4.52148 31.0156L4.37364 31.2172L4.37362 31.2172L4.52148 31.0156ZM8.01562 30.4785L8.21722 30.6264L8.21721 30.6264L8.01562 30.4785ZM17.6738 17.3086L17.4722 17.1608L17.5179 17.0984L17.5908 17.0728L17.6738 17.3086ZM25.2812 14.6309L25.3646 14.8666L25.3643 14.8667L25.2812 14.6309ZM25.6045 14.5166L25.8544 14.5244L25.849 14.6953L25.6878 14.7523L25.6045 14.5166ZM25.6152 14.1738L25.8651 14.1813L25.8651 14.1817L25.6152 14.1738ZM25.9209 4.01465L25.9898 3.77434L26.1766 3.82793L26.1708 4.02217L25.9209 4.01465ZM24.9883 3.74707L24.7726 3.62062L24.8707 3.45326L25.0572 3.50677L24.9883 3.74707ZM21.4727 9.74316L21.6883 9.86961L21.6589 9.91974L21.6104 9.95177L21.4727 9.74316ZM19.3613 11.1377L19.4991 11.3463L18.9726 11.6941L19.1181 11.0801L19.3613 11.1377ZM19.9629 8.59863L19.7196 8.541L19.733 8.48441L19.77 8.43954L19.9629 8.59863ZM24.3857 3.2373L24.5877 3.08998L24.7021 3.24673L24.5786 3.3964L24.3857 3.2373ZM23.8145 2.4541L23.7215 2.22201L23.9019 2.1498L24.0164 2.30677L23.8145 2.4541ZM14.3779 6.23145L14.4714 6.46332L14.154 6.59125L14.0605 6.35938L13.9671 6.1275L14.2845 5.99957L14.3779 6.23145ZM14.0605 6.35938L14.3105 6.35653L14.3144 6.6993L14.0645 6.70215L13.8145 6.705L13.8106 6.36222L14.0605 6.35938ZM14.0645 6.70215L14.3144 6.69906L14.4004 13.6551L14.1504 13.6582L13.9004 13.6613L13.8145 6.70524L14.0645 6.70215ZM14.1504 13.6582L14.352 13.806L4.18598 27.6693L3.98438 27.5215L3.78277 27.3736L13.9488 13.5104L14.1504 13.6582ZM3.98438 27.5215L4.18598 27.6693C3.45115 28.6714 3.66751 30.0792 4.66935 30.814L4.52148 31.0156L4.37362 31.2172C3.14907 30.319 2.88471 28.5983 3.78277 27.3736L3.98438 27.5215ZM4.52148 31.0156L4.66932 30.814C5.67135 31.5488 7.07917 31.3325 7.81404 30.3307L8.01562 30.4785L8.21721 30.6264C7.31897 31.8509 5.59827 32.1153 4.37364 31.2172L4.52148 31.0156ZM8.01562 30.4785L7.81403 30.3307L17.4722 17.1608L17.6738 17.3086L17.8754 17.4564L8.21722 30.6264L8.01562 30.4785ZM17.6738 17.3086L17.5908 17.0728L25.1982 14.395L25.2812 14.6309L25.3643 14.8667L17.7568 17.5444L17.6738 17.3086ZM25.2812 14.6309L25.1979 14.3952L25.5212 14.2809L25.6045 14.5166L25.6878 14.7523L25.3646 14.8666L25.2812 14.6309ZM25.6045 14.5166L25.3546 14.5088L25.3654 14.166L25.6152 14.1738L25.8651 14.1817L25.8544 14.5244L25.6045 14.5166ZM25.6152 14.1738L25.3653 14.1663L25.671 4.00713L25.9209 4.01465L26.1708 4.02217L25.8651 14.1813L25.6152 14.1738ZM25.9209 4.01465L25.852 4.25495L24.9193 3.98738L24.9883 3.74707L25.0572 3.50677L25.9898 3.77434L25.9209 4.01465ZM24.9883 3.74707L25.2039 3.87352L21.6883 9.86961L21.4727 9.74316L21.257 9.61672L24.7726 3.62062L24.9883 3.74707ZM21.4727 9.74316L21.6104 9.95177L19.4991 11.3463L19.3613 11.1377L19.2235 10.9291L21.3349 9.53456L21.4727 9.74316ZM19.3613 11.1377L19.1181 11.0801L19.7196 8.541L19.9629 8.59863L20.2062 8.65627L19.6046 11.1953L19.3613 11.1377ZM19.9629 8.59863L19.77 8.43954L24.1929 3.07821L24.3857 3.2373L24.5786 3.3964L20.1557 8.75772L19.9629 8.59863ZM24.3857 3.2373L24.1838 3.38463L23.6125 2.60143L23.8145 2.4541L24.0164 2.30677L24.5877 3.08998L24.3857 3.2373ZM23.8145 2.4541L23.9074 2.6862L14.4708 6.46354L14.3779 6.23145L14.285 5.99935L23.7215 2.22201L23.8145 2.4541Z" fill="black"/>
</g>
<defs>
<clipPath id="clip0_19_137">
<rect width="32" height="32" fill="white" transform="matrix(-1 0 0 1 32 0)"/>
</clipPath>
</defs>
</svg>
