<svg width="32" height="32" viewBox="0 0 32 32" fill="none" xmlns="http://www.w3.org/2000/svg">
<g clip-path="url(#clip0_18_109)">
<path d="M11.2464 7.30344L13.7778 15.4697L16.7813 13.3495L16.4585 7.5042L19.2199 1L11.2464 7.30344Z" fill="#4A8BD9" stroke="#4A8BD9" stroke-linecap="round"/>
<path d="M25.2047 18.0536L16.7008 17.1706L18.1918 13.81L23.9871 12.9818L29.8245 9L25.2047 18.0536Z" fill="#D94B3D" stroke="#D94B3D" stroke-linecap="round"/>
<path d="M17 14L6 29" stroke="#C5C5C5" stroke-width="5" stroke-linecap="round"/>
<path d="M10.9365 6.91113L11.0916 7.10725L11.0914 7.10739L10.9365 6.91113ZM10.668 7.12305L10.4289 7.19632L10.3788 7.03276L10.5131 6.92679L10.668 7.12305ZM10.7686 7.45117L10.5298 7.5252L10.5295 7.52444L10.7686 7.45117ZM13.126 15.0557L13.3648 14.9816L13.4021 15.1019L13.3276 15.2035L13.126 15.0557ZM3.98438 27.5215L3.78277 27.3736V27.3736L3.98438 27.5215ZM4.52148 31.0156L4.37364 31.2172L4.37362 31.2172L4.52148 31.0156ZM8.01562 30.4785L8.21723 30.6264L8.21721 30.6264L8.01562 30.4785ZM17.3564 17.7412L17.1548 17.5934L17.2396 17.4777L17.3823 17.4925L17.3564 17.7412ZM25.1533 18.5508L25.1277 18.7995L25.1275 18.7994L25.1533 18.5508ZM25.4941 18.5859L25.7167 18.6997L25.6388 18.8522L25.4685 18.8346L25.4941 18.5859ZM25.6504 18.2803L25.8731 18.3939L25.873 18.3941L25.6504 18.2803ZM30.2705 9.22754L30.4356 9.0398L30.5815 9.16811L30.4932 9.34118L30.2705 9.22754ZM29.542 8.58691L29.4011 8.3804L29.5614 8.27105L29.7071 8.39918L29.542 8.58691ZM23.8008 12.5039L23.9417 12.7104L23.8937 12.7432L23.8361 12.7514L23.8008 12.5039ZM19.3467 13.1396L19.382 13.3871L19.1814 13.4158L19.1119 13.2255L19.3467 13.1396ZM18.4785 11.9844L18.6264 11.7828L18.6264 11.7828L18.4785 11.9844ZM17.1807 11.5088L17.1628 11.7582L16.9432 11.7424L16.931 11.5226L17.1807 11.5088ZM16.9639 7.59375L16.7142 7.60757L16.711 7.54954L16.7338 7.49604L16.9639 7.59375ZM19.6807 1.19531L19.8323 0.996559L19.9867 1.11432L19.9108 1.29302L19.6807 1.19531ZM18.9102 0.607422L18.7551 0.411306L18.9074 0.290885L19.0618 0.408668L18.9102 0.607422ZM10.9365 6.91113L11.0914 7.10739L10.8228 7.3193L10.668 7.12305L10.5131 6.92679L10.7817 6.71488L10.9365 6.91113ZM10.668 7.12305L10.907 7.04978L11.0076 7.3779L10.7686 7.45117L10.5295 7.52444L10.4289 7.19632L10.668 7.12305ZM10.7686 7.45117L11.0073 7.37715L13.3648 14.9816L13.126 15.0557L12.8872 15.1297L10.5298 7.5252L10.7686 7.45117ZM13.126 15.0557L13.3276 15.2035L4.18598 27.6693L3.98438 27.5215L3.78277 27.3736L12.9244 14.9078L13.126 15.0557ZM3.98438 27.5215L4.18598 27.6693C3.45115 28.6714 3.66751 30.0792 4.66935 30.814L4.52148 31.0156L4.37362 31.2172C3.14907 30.319 2.88471 28.5983 3.78277 27.3736L3.98438 27.5215ZM4.52148 31.0156L4.66932 30.814C5.67135 31.5488 7.07917 31.3325 7.81404 30.3307L8.01562 30.4785L8.21721 30.6264C7.31897 31.8509 5.59827 32.1153 4.37364 31.2172L4.52148 31.0156ZM8.01562 30.4785L7.81402 30.3307L17.1548 17.5934L17.3564 17.7412L17.558 17.8891L8.21723 30.6264L8.01562 30.4785ZM17.3564 17.7412L17.3823 17.4925L25.1791 18.3021L25.1533 18.5508L25.1275 18.7994L17.3306 17.9899L17.3564 17.7412ZM25.1533 18.5508L25.179 18.3021L25.5198 18.3373L25.4941 18.5859L25.4685 18.8346L25.1277 18.7995L25.1533 18.5508ZM25.4941 18.5859L25.2715 18.4721L25.4278 18.1665L25.6504 18.2803L25.873 18.3941L25.7167 18.6997L25.4941 18.5859ZM25.6504 18.2803L25.4277 18.1666L30.0478 9.11389L30.2705 9.22754L30.4932 9.34118L25.8731 18.3939L25.6504 18.2803ZM30.2705 9.22754L30.1054 9.41528L29.3769 8.77465L29.542 8.58691L29.7071 8.39918L30.4356 9.0398L30.2705 9.22754ZM29.542 8.58691L29.6829 8.79343L23.9417 12.7104L23.8008 12.5039L23.6599 12.2974L29.4011 8.3804L29.542 8.58691ZM23.8008 12.5039L23.8361 12.7514L19.382 13.3871L19.3467 13.1396L19.3114 12.8922L23.7655 12.2564L23.8008 12.5039ZM19.3467 13.1396L19.1119 13.2255C18.9648 12.8231 18.7021 12.4584 18.3307 12.186L18.4785 11.9844L18.6264 11.7828C19.0801 12.1156 19.4017 12.5621 19.5815 13.0538L19.3467 13.1396ZM18.4785 11.9844L18.3307 12.186C17.9766 11.9263 17.5717 11.7874 17.1628 11.7582L17.1807 11.5088L17.1985 11.2594C17.6969 11.2951 18.1928 11.4649 18.6264 11.7828L18.4785 11.9844ZM17.1807 11.5088L16.931 11.5226L16.7142 7.60757L16.9639 7.59375L17.2135 7.57993L17.4303 11.495L17.1807 11.5088ZM16.9639 7.59375L16.7338 7.49604L19.4505 1.0976L19.6807 1.19531L19.9108 1.29302L17.194 7.69146L16.9639 7.59375ZM19.6807 1.19531L19.529 1.39407L18.7585 0.806176L18.9102 0.607422L19.0618 0.408668L19.8323 0.996559L19.6807 1.19531ZM18.9102 0.607422L19.0652 0.803538L11.0916 7.10725L10.9365 6.91113L10.7815 6.71502L18.7551 0.411306L18.9102 0.607422Z" fill="black"/>
</g>
<defs>
<clipPath id="clip0_18_109">
<rect width="32" height="32" fill="white" transform="matrix(-1 0 0 1 32 0)"/>
</clipPath>
</defs>
</svg>
