<svg width="100" height="120" viewBox="0 0 100 120" fill="none" xmlns="http://www.w3.org/2000/svg">
<mask id="path-1-inside-1_13_77" fill="white">
<path d="M50 10C55.5228 10 60 14.4772 60 20C60 24.4775 57.0569 28.2666 53 29.541V38H69C77.2843 38 84 44.7157 84 53V78C84 86.2843 77.2843 93 69 93H30C21.7157 93 15 86.2843 15 78V53C15 44.7157 21.7157 38 30 38H47V29.541C42.9431 28.2666 40 24.4775 40 20C40 14.4772 44.4772 10 50 10Z"/>
</mask>
<path d="M53 29.541L52.7003 28.587L52 28.807V29.541H53ZM53 38H52V39H53V38ZM69 38V37V37V38ZM84 53H85V53H84ZM69 93V94V94V93ZM30 93V94V94V93ZM15 78H14V78H15ZM30 38V37V37V38ZM47 38V39H48V38H47ZM47 29.541H48V28.807L47.2997 28.587L47 29.541ZM50 10V11C54.9706 11 59 15.0294 59 20H60H61C61 13.9249 56.0751 9 50 9V10ZM60 20H59C59 24.0281 56.3526 27.4397 52.7003 28.587L53 29.541L53.2997 30.4951C57.7612 29.0936 61 24.927 61 20H60ZM53 29.541H52V38H53H54V29.541H53ZM53 38V39H69V38V37H53V38ZM69 38V39C76.732 39 83 45.268 83 53H84H85C85 44.1634 77.8366 37 69 37V38ZM84 53H83V78H84H85V53H84ZM84 78H83C83 85.732 76.732 92 69 92V93V94C77.8366 94 85 86.8366 85 78H84ZM69 93V92H30V93V94H69V93ZM30 93V92C22.268 92 16 85.732 16 78H15H14C14 86.8366 21.1634 94 30 94V93ZM15 78H16V53H15H14V78H15ZM15 53H16C16 45.268 22.268 39 30 39V38V37C21.1634 37 14 44.1634 14 53H15ZM30 38V39H47V38V37H30V38ZM47 38H48V29.541H47H46V38H47ZM47 29.541L47.2997 28.587C43.6474 27.4397 41 24.0281 41 20H40H39C39 24.927 42.2388 29.0936 46.7003 30.4951L47 29.541ZM40 20H41C41 15.0294 45.0294 11 50 11V10V9C43.9249 9 39 13.9249 39 20H40Z" fill="white" mask="url(#path-1-inside-1_13_77)"/>
</svg>
