<svg width="100" height="120" viewBox="0 0 100 120" fill="none" xmlns="http://www.w3.org/2000/svg">
<path d="M39.72 54.56C39.7947 54.8587 39.832 55.232 39.832 55.68C39.832 56.1093 39.7947 56.4827 39.72 56.8C39.7947 57.0987 39.832 57.472 39.832 57.92C39.832 58.3493 39.7947 58.7227 39.72 59.04C39.7947 59.3387 39.832 59.712 39.832 60.16C39.832 60.5893 39.7947 60.9627 39.72 61.28C39.7947 61.5787 39.832 61.952 39.832 62.4C39.832 62.8293 39.7947 63.2027 39.72 63.52H37.48C37.4053 63.2027 37.368 62.8293 37.368 62.4C37.368 61.952 37.4053 61.5787 37.48 61.28C37.4053 60.9627 37.368 60.5893 37.368 60.16C37.368 59.712 37.4053 59.3387 37.48 59.04C37.4053 58.7227 37.368 58.3493 37.368 57.92C37.368 57.472 37.4053 57.0987 37.48 56.8C37.4053 56.4827 37.368 56.1093 37.368 55.68C37.368 55.232 37.4053 54.8587 37.48 54.56C37.4053 54.2427 37.368 53.8693 37.368 53.44C37.368 52.992 37.4053 52.6187 37.48 52.32H39.72C39.7947 52.6187 39.832 52.992 39.832 53.44C39.832 53.8693 39.7947 54.2427 39.72 54.56ZM39.72 65.76C39.7947 66.0587 39.832 66.432 39.832 66.88C39.832 67.3093 39.7947 67.6827 39.72 68H37.48C37.4053 67.6827 37.368 67.3093 37.368 66.88C37.368 66.432 37.4053 66.0587 37.48 65.76H39.72ZM50.9309 54.56C51.0056 54.8587 51.0429 55.232 51.0429 55.68C51.0429 56.1093 51.0056 56.4827 50.9309 56.8C51.0056 57.0987 51.0429 57.472 51.0429 57.92C51.0429 58.3493 51.0056 58.7227 50.9309 59.04C51.0056 59.3387 51.0429 59.712 51.0429 60.16C51.0429 60.5893 51.0056 60.9627 50.9309 61.28C51.0056 61.5787 51.0429 61.952 51.0429 62.4C51.0429 62.8293 51.0056 63.2027 50.9309 63.52H48.6909C48.6163 63.2027 48.5789 62.8293 48.5789 62.4C48.5789 61.952 48.6163 61.5787 48.6909 61.28C48.6163 60.9627 48.5789 60.5893 48.5789 60.16C48.5789 59.712 48.6163 59.3387 48.6909 59.04C48.6163 58.7227 48.5789 58.3493 48.5789 57.92C48.5789 57.472 48.6163 57.0987 48.6909 56.8C48.6163 56.4827 48.5789 56.1093 48.5789 55.68C48.5789 55.232 48.6163 54.8587 48.6909 54.56C48.6163 54.2427 48.5789 53.8693 48.5789 53.44C48.5789 52.992 48.6163 52.6187 48.6909 52.32H50.9309C51.0056 52.6187 51.0429 52.992 51.0429 53.44C51.0429 53.8693 51.0056 54.2427 50.9309 54.56ZM50.9309 65.76C51.0056 66.0587 51.0429 66.432 51.0429 66.88C51.0429 67.3093 51.0056 67.6827 50.9309 68H48.6909C48.6163 67.6827 48.5789 67.3093 48.5789 66.88C48.5789 66.432 48.6163 66.0587 48.6909 65.76H50.9309ZM62.1419 54.56C62.2165 54.8587 62.2539 55.232 62.2539 55.68C62.2539 56.1093 62.2165 56.4827 62.1419 56.8C62.2165 57.0987 62.2539 57.472 62.2539 57.92C62.2539 58.3493 62.2165 58.7227 62.1419 59.04C62.2165 59.3387 62.2539 59.712 62.2539 60.16C62.2539 60.5893 62.2165 60.9627 62.1419 61.28C62.2165 61.5787 62.2539 61.952 62.2539 62.4C62.2539 62.8293 62.2165 63.2027 62.1419 63.52H59.9019C59.8272 63.2027 59.7899 62.8293 59.7899 62.4C59.7899 61.952 59.8272 61.5787 59.9019 61.28C59.8272 60.9627 59.7899 60.5893 59.7899 60.16C59.7899 59.712 59.8272 59.3387 59.9019 59.04C59.8272 58.7227 59.7899 58.3493 59.7899 57.92C59.7899 57.472 59.8272 57.0987 59.9019 56.8C59.8272 56.4827 59.7899 56.1093 59.7899 55.68C59.7899 55.232 59.8272 54.8587 59.9019 54.56C59.8272 54.2427 59.7899 53.8693 59.7899 53.44C59.7899 52.992 59.8272 52.6187 59.9019 52.32H62.1419C62.2165 52.6187 62.2539 52.992 62.2539 53.44C62.2539 53.8693 62.2165 54.2427 62.1419 54.56ZM62.1419 65.76C62.2165 66.0587 62.2539 66.432 62.2539 66.88C62.2539 67.3093 62.2165 67.6827 62.1419 68H59.9019C59.8272 67.6827 59.7899 67.3093 59.7899 66.88C59.7899 66.432 59.8272 66.0587 59.9019 65.76H62.1419Z" fill="white"/>
</svg>
