<svg width="100" height="120" viewBox="0 0 100 120" fill="none" xmlns="http://www.w3.org/2000/svg">
<path d="M53.8429 55.68C53.8429 56.1093 53.8056 56.4827 53.7309 56.8C53.8056 57.0987 53.8429 57.472 53.8429 57.92C53.8429 58.3493 53.8056 58.7227 53.7309 59.04H52.3309C52.4056 59.3387 52.4429 59.712 52.4429 60.16C52.4429 60.5893 52.4056 60.9627 52.3309 61.28H50.9309C51.0056 61.5787 51.0429 61.952 51.0429 62.4C51.0429 62.8293 51.0056 63.2027 50.9309 63.52H48.6909C48.6163 63.2027 48.5789 62.8293 48.5789 62.4C48.5789 61.952 48.6163 61.5787 48.6909 61.28H50.0909C50.0163 60.9627 49.9789 60.5893 49.9789 60.16C49.9789 59.712 50.0163 59.3387 50.0909 59.04H51.4909C51.4163 58.7227 51.3789 58.3493 51.3789 57.92C51.3789 57.472 51.4163 57.0987 51.4909 56.8C51.4163 56.4827 51.3789 56.1093 51.3789 55.68C51.3789 55.232 51.4163 54.8587 51.4909 54.56H47.5709C47.6456 54.8587 47.6829 55.232 47.6829 55.68C47.6829 56.1093 47.6456 56.4827 47.5709 56.8H45.3309C45.2563 56.4827 45.2189 56.1093 45.2189 55.68C45.2189 55.232 45.2563 54.8587 45.3309 54.56H47.0109C46.9363 54.2427 46.8989 53.8693 46.8989 53.44C46.8989 52.992 46.9363 52.6187 47.0109 52.32H52.6109C52.6856 52.6187 52.7229 52.992 52.7229 53.44C52.7229 53.8693 52.6856 54.2427 52.6109 54.56H53.7309C53.8056 54.8587 53.8429 55.232 53.8429 55.68ZM50.9309 65.76C51.0056 66.0587 51.0429 66.432 51.0429 66.88C51.0429 67.3093 51.0056 67.6827 50.9309 68H48.6909C48.6163 67.6827 48.5789 67.3093 48.5789 66.88C48.5789 66.432 48.6163 66.0587 48.6909 65.76H50.9309Z" fill="white"/>
</svg>
