<svg width="100" height="120" viewBox="0 0 100 120" fill="none" xmlns="http://www.w3.org/2000/svg">
<path d="M42.632 55.68C42.632 56.1093 42.5947 56.4827 42.52 56.8C42.5947 57.0987 42.632 57.472 42.632 57.92C42.632 58.3493 42.5947 58.7227 42.52 59.04H41.12C41.1947 59.3387 41.232 59.712 41.232 60.16C41.232 60.5893 41.1947 60.9627 41.12 61.28H39.72C39.7947 61.5787 39.832 61.952 39.832 62.4C39.832 62.8293 39.7947 63.2027 39.72 63.52H37.48C37.4053 63.2027 37.368 62.8293 37.368 62.4C37.368 61.952 37.4053 61.5787 37.48 61.28H38.88C38.8053 60.9627 38.768 60.5893 38.768 60.16C38.768 59.712 38.8053 59.3387 38.88 59.04H40.28C40.2053 58.7227 40.168 58.3493 40.168 57.92C40.168 57.472 40.2053 57.0987 40.28 56.8C40.2053 56.4827 40.168 56.1093 40.168 55.68C40.168 55.232 40.2053 54.8587 40.28 54.56H36.36C36.4347 54.8587 36.472 55.232 36.472 55.68C36.472 56.1093 36.4347 56.4827 36.36 56.8H34.12C34.0453 56.4827 34.008 56.1093 34.008 55.68C34.008 55.232 34.0453 54.8587 34.12 54.56H35.8C35.7253 54.2427 35.688 53.8693 35.688 53.44C35.688 52.992 35.7253 52.6187 35.8 52.32H41.4C41.4747 52.6187 41.512 52.992 41.512 53.44C41.512 53.8693 41.4747 54.2427 41.4 54.56H42.52C42.5947 54.8587 42.632 55.232 42.632 55.68ZM39.72 65.76C39.7947 66.0587 39.832 66.432 39.832 66.88C39.832 67.3093 39.7947 67.6827 39.72 68H37.48C37.4053 67.6827 37.368 67.3093 37.368 66.88C37.368 66.432 37.4053 66.0587 37.48 65.76H39.72Z" fill="white"/>
</svg>
