<svg width="100" height="120" viewBox="0 0 100 120" fill="none" xmlns="http://www.w3.org/2000/svg">
<path d="M65.0539 55.68C65.0539 56.1093 65.0165 56.4827 64.9419 56.8C65.0165 57.0987 65.0539 57.472 65.0539 57.92C65.0539 58.3493 65.0165 58.7227 64.9419 59.04H63.5419C63.6165 59.3387 63.6539 59.712 63.6539 60.16C63.6539 60.5893 63.6165 60.9627 63.5419 61.28H62.1419C62.2165 61.5787 62.2539 61.952 62.2539 62.4C62.2539 62.8293 62.2165 63.2027 62.1419 63.52H59.9019C59.8272 63.2027 59.7899 62.8293 59.7899 62.4C59.7899 61.952 59.8272 61.5787 59.9019 61.28H61.3019C61.2272 60.9627 61.1899 60.5893 61.1899 60.16C61.1899 59.712 61.2272 59.3387 61.3019 59.04H62.7019C62.6272 58.7227 62.5899 58.3493 62.5899 57.92C62.5899 57.472 62.6272 57.0987 62.7019 56.8C62.6272 56.4827 62.5899 56.1093 62.5899 55.68C62.5899 55.232 62.6272 54.8587 62.7019 54.56H58.7819C58.8565 54.8587 58.8939 55.232 58.8939 55.68C58.8939 56.1093 58.8565 56.4827 58.7819 56.8H56.5419C56.4672 56.4827 56.4299 56.1093 56.4299 55.68C56.4299 55.232 56.4672 54.8587 56.5419 54.56H58.2219C58.1472 54.2427 58.1099 53.8693 58.1099 53.44C58.1099 52.992 58.1472 52.6187 58.2219 52.32H63.8219C63.8965 52.6187 63.9339 52.992 63.9339 53.44C63.9339 53.8693 63.8965 54.2427 63.8219 54.56H64.9419C65.0165 54.8587 65.0539 55.232 65.0539 55.68ZM62.1419 65.76C62.2165 66.0587 62.2539 66.432 62.2539 66.88C62.2539 67.3093 62.2165 67.6827 62.1419 68H59.9019C59.8272 67.6827 59.7899 67.3093 59.7899 66.88C59.7899 66.432 59.8272 66.0587 59.9019 65.76H62.1419Z" fill="white"/>
</svg>
